<svg xmlns="http://www.w3.org/2000/svg" xmlns:xlink="http://www.w3.org/1999/xlink" id="Layer_1" x="0" y="0" version="1.1" viewBox="0 0 32 32" xml:space="preserve" style="enable-background:new 0 0 32 32"><style type="text/css">.st0{fill:#fff}</style><g id="Layer_28"><path d="M16,31C7.7,31,1,24.3,1,16S7.7,1,16,1s15,6.7,15,15S24.3,31,16,31z M16,4.3C9.5,4.3,4.3,9.5,4.3,16 S9.5,27.7,16,27.7S27.7,22.5,27.7,16S22.5,4.3,16,4.3z" class="st0"/><path d="M13.7,22c-0.3,0-0.5-0.1-0.7-0.3l-4.7-5c-0.3-0.4-0.3-1.1,0.1-1.4c0.4-0.3,0.9-0.3,1.3,0l3.9,4.2l8.6-9.2 c0.3-0.4,1-0.5,1.4-0.1c0.4,0.3,0.5,1,0.1,1.4c0,0-0.1,0.1-0.1,0.1l-9.3,10C14.2,21.9,13.9,22,13.7,22z" class="st0"/></g></svg>