<?xml version="1.0" encoding="utf-8"?>
<!-- Generator: Adobe Illustrator 25.0.1, SVG Export Plug-In . SVG Version: 6.00 Build 0)  -->
<svg version="1.1" id="Layer_1" xmlns="http://www.w3.org/2000/svg" xmlns:xlink="http://www.w3.org/1999/xlink" x="0px" y="0px"
	 viewBox="0 0 32 32" style="enable-background:new 0 0 32 32;" xml:space="preserve">
<style type="text/css">
	.st0{fill:#FFFFFF;}
</style>
<g id="Layer_28">
	<path class="st0" d="M16,31C7.7,31,1,24.3,1,16S7.7,1,16,1s15,6.7,15,15S24.3,31,16,31z M16,4.3C9.5,4.3,4.3,9.5,4.3,16
		S9.5,27.7,16,27.7S27.7,22.5,27.7,16S22.5,4.3,16,4.3z"/>
	<path class="st0" d="M13.7,22c-0.3,0-0.5-0.1-0.7-0.3l-4.7-5c-0.3-0.4-0.3-1.1,0.1-1.4c0.4-0.3,0.9-0.3,1.3,0l3.9,4.2l8.6-9.2
		c0.3-0.4,1-0.5,1.4-0.1c0.4,0.3,0.5,1,0.1,1.4c0,0-0.1,0.1-0.1,0.1l-9.3,10C14.2,21.9,13.9,22,13.7,22z"/>
</g>
</svg>
