<svg xmlns="http://www.w3.org/2000/svg" viewBox="0 0 256 256"><path fill="#fff" d="m151.07 128.11c0 15.17-10.17 28.47-26.79 27.47-14.77-.89-26.79-12.3-26.79-27.47s10.76-27.07 26.79-27.47c15.83-.39 26.79 12.3 26.79 27.47z"/><path fill="#fff" d="m126.06 163.63q-1.12 0-2.27-.07c-19.56-1.18-34.31-16.42-34.31-35.45 0-20 14.55-35 34.59-35.47a33.24 33.24 0 0 1 24.35 9.36 36.5 36.5 0 0 1 10.65 26.09c0 10.56-4 20.4-11 27a31.37 31.37 0 0 1 -22.01 8.54zm-1.07-55h-.52c-11.18.28-19 8.29-19 19.47 0 10.44 8.29 18.82 19.27 19.48a15.85 15.85 0 0 0 12.33-4.15c3.8-3.58 6-9.17 6-15.34a20.43 20.43 0 0 0 -5.82-14.64 17.14 17.14 0 0 0 -12.25-4.82z"/><path fill="#fff" d="m40.59 49.24c-1.28 0-33.08 24.32-33.08 76 0 53.23 30.89 81.28 32.64 81.49s16.43-13.58 16.43-14.68-26.95-20.59-26.95-65.28 26.73-61.33 26.73-62.85c0-.92-12.26-14.68-15.77-14.68z"/><path fill="#fff" d="m74.77 78.6c-1.55 0-21.69 12.71-22.13 46.88-.45 35.05 19.72 52.36 21 52.58s14.24-13.36 14.24-14.46-15.48-11.84-14.68-35.49c.88-25.85 14.9-34.61 14.9-35.71s-11.36-13.8-13.33-13.8z"/><path fill="#fff" d="m215.41 49.24c1.28 0 33.08 24.32 33.08 76 0 53.23-30.89 81.28-32.64 81.49s-16.43-13.58-16.43-14.68 26.95-20.59 26.95-65.28-26.73-61.36-26.73-62.87c0-.9 12.26-14.66 15.77-14.66z"/><path fill="#fff" d="m181.23 78.6c1.55 0 21.69 12.71 22.13 46.88.45 35.05-19.72 52.36-21 52.58s-14.24-13.36-14.24-14.46 15.48-11.84 14.68-35.49c-.88-25.85-14.9-34.61-14.9-35.71s11.36-13.8 13.33-13.8z"/></svg>